<svg id="Capa_1" enable-background="new 0 0 510 510" height="512" viewBox="0 0 510 510" width="512" xmlns="http://www.w3.org/2000/svg"><g><path d="m435 141.505v-141.505h-360v142.79l-75 60.001v307.209h510v-323.492zm-295.322 207.604-109.678 109.678v-164.517zm28.284 14.142 87.038 43.52 87.038-43.52 116.749 116.749h-407.574zm202.36-14.142 109.678-54.839v164.518zm109.678-145.617v57.238l-45 22.5v-106.739zm-75-173.492v268.23l-150 74.999-150-74.999v-268.23zm-330 151.209v102.021l-45-22.5v-43.521z"/><path d="m255 285c57.897 0 105-47.102 105-105s-47.103-105-105-105-105 47.103-105 105 47.103 105 105 105zm-44.948-45c26.674-19.964 63.14-20.024 89.896 0-26.622 19.994-63.235 20.024-89.896 0zm29.948-60c0-8.271 6.729-15 15-15 8.272 0 15 6.729 15 15s-6.728 15-15 15c-8.271 0-15-6.729-15-15zm15-75c41.355 0 75 33.645 75 75 0 13.654-3.685 26.456-10.087 37.496-7.924-6.229-16.679-11.266-25.975-14.982 3.847-6.627 6.062-14.315 6.062-22.514 0-24.814-20.186-45-45-45-24.813 0-45 20.186-45 45 0 8.199 2.215 15.887 6.062 22.514-9.296 3.717-18.051 8.754-25.975 14.982-6.401-11.04-10.087-23.842-10.087-37.496 0-41.355 33.645-75 75-75z"/></g></svg>