<svg id="Capa_1" enable-background="new 0 0 512 512" height="512" viewBox="0 0 512 512" width="512" xmlns="http://www.w3.org/2000/svg"><g><g><path d="m322.167 157.021c0-18.485-11.278-34.384-27.314-41.18 1.999-4.912 3.11-10.277 3.11-15.898 0-23.34-18.988-42.328-42.328-42.328s-42.328 18.988-42.328 42.328c0 5.728 1.15 11.192 3.221 16.179-15.703 6.94-26.693 22.656-26.693 40.899v41.397h132.333v-41.397zm-66.533-69.407c6.798 0 12.328 5.53 12.328 12.328 0 6.797-5.53 12.327-12.328 12.327s-12.328-5.53-12.328-12.327 5.53-12.328 12.328-12.328zm36.533 80.804h-72.333v-11.397c0-8.105 6.594-14.699 14.699-14.699h42.936c8.105 0 14.699 6.594 14.699 14.699v11.397z"/><path d="m189.504 242.605h132.992v30h-132.992z"/><path d="m189.504 302.608h132.992v30h-132.992z"/></g><path d="m512 199.206c-4.37-30.835-23.491-58.796-50.419-75.173l-20.955-12.745.003-66.286c.001-12.021-4.68-23.321-13.18-31.821-8.499-8.5-19.8-13.181-31.82-13.181h-324.258v111.291l-20.952 12.743c-26.928 16.376-46.049 44.337-50.419 75.172v312.794h512zm-66.008-49.542c17.871 10.87 30.295 28.88 34.468 49.045h-39.839l.003-52.31zm-61.92-119.664h11.557c4.007 0 7.773 1.561 10.607 4.394 2.833 2.834 4.394 6.601 4.393 10.606l-.002 39.787h-26.555zm0 84.787h26.554l-.002 50.267h-26.551v-50.267zm0 80.267h26.55l-.003 53.586h-26.547zm-282.701-165.054h252.701v248.64h56.546l-.001 21.126-154.617 94.036-154.629-94.043zm-35.363 119.664 5.363-3.262v52.307h-39.831c4.173-20.165 16.597-38.175 34.468-49.045zm5.363 79.542v52.307l-5.363-3.262c-17.871-10.87-30.295-28.88-34.468-49.045zm-41.371 58.388c6.046 6.207 12.883 11.705 20.419 16.288l103.133 62.725-123.552 99.127zm27.666 194.406 123.155-98.809 75.179 45.724 73.175-44.505 124.401 97.59zm424.334-15.832-125.447-98.409 105.027-63.877c7.536-4.583 14.374-10.081 20.419-16.288v178.574zm-41.383-184.648.003-52.313h39.84c-4.173 20.165-16.597 38.175-34.468 49.045z"/></g></svg>