<svg id="Capa_1" enable-background="new 0 0 512 512" height="512" viewBox="0 0 512 512" width="512" xmlns="http://www.w3.org/2000/svg"><path d="m456.606 91.146-86.752-86.752c-2.812-2.813-6.627-4.394-10.606-4.394h-253.344c-30.274 0-54.904 24.63-54.904 54.904v402.192c0 30.274 24.63 54.904 54.904 54.904h300.192c30.274 0 54.904-24.63 54.904-54.904v-355.344c0-3.978-1.58-7.794-4.394-10.606zm-82.358-39.933 35.539 35.539h-35.539zm31.849 430.787h-300.193c-13.732 0-24.904-11.172-24.904-24.904v-402.192c0-13.732 11.172-24.904 24.904-24.904h238.344v71.752c0 8.284 6.716 15 15 15h71.752v340.344c0 13.732-11.172 24.904-24.903 24.904z"/><path d="m353.567 142h-195.133c-8.284 0-15 6.716-15 15v38.29c0 8.284 6.716 15 15 15s15-6.716 15-15v-23.29h67.835v137.874h-15.338c-8.284 0-15 6.716-15 15s6.716 15 15 15h60.676c8.284 0 15-6.716 15-15s-6.716-15-15-15h-15.338v-137.874h67.299v23.29c0 8.284 6.716 15 15 15s15-6.716 15-15v-38.29c-.001-8.284-6.716-15-15.001-15z"/><path d="m353.567 370.407h-195.133c-8.284 0-15 6.716-15 15s6.716 15 15 15h195.134c8.284 0 15-6.716 15-15s-6.716-15-15.001-15z"/><path d="m323.836 420.407h-165.135c-8.284 0-15 6.716-15 15s6.716 15 15 15h165.135c8.284 0 15-6.716 15-15s-6.716-15-15-15z"/></svg>