<?xml version="1.0" encoding="iso-8859-1"?>
<!-- Generator: Adobe Illustrator 19.0.0, SVG Export Plug-In . SVG Version: 6.00 Build 0)  -->
<svg version="1.1" id="Capa_1" xmlns="http://www.w3.org/2000/svg" xmlns:xlink="http://www.w3.org/1999/xlink" x="0px" y="0px"
	 viewBox="0 0 469.333 469.333" style="enable-background:new 0 0 469.333 469.333;" xml:space="preserve">
<g>
	<g>
		<g>
			<circle cx="53.333" cy="53.333" r="10.667"/>
			<circle cx="96" cy="53.333" r="10.667"/>
			<circle cx="138.667" cy="53.333" r="10.667"/>
			<path d="M426.667,0h-384C19.146,0,0,19.135,0,42.667v384c0,23.531,19.146,42.667,42.667,42.667h384
				c23.521,0,42.667-19.135,42.667-42.667v-384C469.333,19.135,450.188,0,426.667,0z M448,426.667
				c0,11.76-9.563,21.333-21.333,21.333h-384c-11.771,0-21.333-9.573-21.333-21.333v-320H448V426.667z M448,85.333H21.333V42.667
				c0-11.76,9.563-21.333,21.333-21.333h384c11.771,0,21.333,9.573,21.333,21.333V85.333z"/>
			<path d="M170.667,320c12.796,0,24.163-5.781,31.991-14.734l54.311,27.156c-0.615,2.879-0.969,5.852-0.969,8.911
				C256,364.865,275.146,384,298.667,384c23.521,0,42.667-19.135,42.667-42.667s-19.146-42.667-42.667-42.667
				c-12.803,0-24.174,5.786-32.003,14.749l-54.305-27.152c0.617-2.884,0.974-5.863,0.974-8.93c0-3.064-0.355-6.04-0.971-8.922
				l54.303-27.159c7.828,8.962,19.199,14.747,32.001,14.747c23.521,0,42.667-19.135,42.667-42.667s-19.146-42.667-42.667-42.667
				c-23.521,0-42.667,19.135-42.667,42.667c0,3.06,0.354,6.034,0.969,8.913l-54.306,27.161
				c-7.828-8.957-19.197-14.741-31.996-14.741c-23.521,0-42.667,19.135-42.667,42.667S147.146,320,170.667,320z M298.667,320
				c11.771,0,21.333,9.573,21.333,21.333s-9.563,21.333-21.333,21.333s-21.333-9.573-21.333-21.333S286.896,320,298.667,320z
				 M298.667,192c11.771,0,21.333,9.573,21.333,21.333c0,11.76-9.563,21.333-21.333,21.333s-21.333-9.573-21.333-21.333
				C277.333,201.573,286.896,192,298.667,192z M170.667,256c11.771,0,21.333,9.573,21.333,21.333
				c0,11.76-9.563,21.333-21.333,21.333s-21.333-9.573-21.333-21.333C149.333,265.573,158.896,256,170.667,256z"/>
		</g>
	</g>
</g>
<g>
</g>
<g>
</g>
<g>
</g>
<g>
</g>
<g>
</g>
<g>
</g>
<g>
</g>
<g>
</g>
<g>
</g>
<g>
</g>
<g>
</g>
<g>
</g>
<g>
</g>
<g>
</g>
<g>
</g>
</svg>
