<svg id="Layer_1" enable-background="new 0 0 510 510" height="512" viewBox="0 0 510 510" width="512" xmlns="http://www.w3.org/2000/svg"><g><path d="m435 157.791v-157.791h-360v157.791l-75 59.999v292.21h510v-292.21zm-265.021 212.457-139.979 96.236v-209.97zm24.272 19.72 60.749 49.359 60.749-49.359 130.955 90.032h-383.408zm145.769-19.72 139.98-113.733v209.97zm131.082-145.157-36.102 29.332v-58.214zm-66.102-195.091v248.798l-150 121.875-150-121.875v-248.798zm-330 224.423-36.102-29.332 36.102-28.882z"/><path d="m135 60h120v30h-120z"/><path d="m135 120h225v30h-225z"/><path d="m135 180h150v30h-150z"/><path d="m165 240h180v30h-180z"/></g></svg>